inDegrees=yes
name=ik_S53_A03_T02
DataType=double
version=3
OpenSimVersion=4.3-2021-08-27-4bc7ad9
endheader
time	pelvis_tilt	pelvis_list	pelvis_rotation	pelvis_tx	pelvis_ty	pelvis_tz	hip_flexion_r	hip_adduction_r	hip_rotation_r	knee_angle_r	knee_angle_r_beta	ankle_angle_r	subtalar_angle_r	mtp_angle_r	hip_flexion_l	hip_adduction_l	hip_rotation_l	knee_angle_l	knee_angle_l_beta	ankle_angle_l	subtalar_angle_l	mtp_angle_l	lumbar_extension	lumbar_bending	lumbar_rotation	arm_flex_r	arm_add_r	arm_rot_r	elbow_flex_r	pro_sup_r	wrist_flex_r	wrist_dev_r	arm_flex_l	arm_add_l	arm_rot_l	elbow_flex_l	pro_sup_l	wrist_flex_l	wrist_dev_l
0	0	0	0	0	0.9399999999999999	0	0	0	0	0	0	0	0	0	0	0	0	0	0	0	0	0	0	0	0	0	0	0	0	89.99999999963507	0	0	0	0	0	0	89.99999999869995	0	0
0.01666666666666667	-0.5699555835603307	1.064149336439654	-80.11009596997724	0	0.9399999999999999	0	-0.506775321334214	-4.545721098384803	1.390938338247006	-1.706181255130253	-0.02977848053783231	0	0	0	-2.286329070738093	-1.120194545472402	1.69398421136861	-4.740375120456256	-0.08273515363158447	0	0	0	0	0	0	1.71070179935376	-1.71070179935376	0.3044868716481462	8.471930667858857	89.69551314587612	0	0	1.71070179935376	-1.71070179935376	0.3044868716481462	8.471930667858857	89.69551314499812	0	0
0.03333333333333333	-0.6191750492029615	0.9886184835221355	-80.03029173436728	0	0.9399999999999999	0	-0.6867942533581836	-4.466058361933558	1.173019919775272	-1.773953744002777	-0.03096133361092907	0	0	0	-2.384664413478426	-1.185914059812239	1.716419815405105	-4.647979988284742	-0.08112255436237621	0	0	0	0	0	0	1.716000810075173	-1.716000810075173	0.3055267105579064	8.51928583312564	89.6944733070286	0	0	1.716000810075173	-1.716000810075173	0.3055267105579064	8.51928583312564	89.69447330615083	0	0
0.05	-0.6199506904882837	1.014944443254674	-80.03494545205852	0	0.9399999999999999	0	-0.7599665956370072	-4.458916013664321	1.132756098847859	-1.88334760506385	-0.03287061666791402	0	0	0	-2.394027475594747	-1.198661058602862	1.640857802158301	-4.621009200326233	-0.08065182531064299	0	0	0	0	0	0	1.788518150979015	-1.788518150979015	0.3192130547869197	8.814325243037411	89.68078696360965	0	0	1.788518150979015	-1.788518150979015	0.3192130547869197	8.814325243037411	89.68078696273446	0	0
0.06666666666666667	-0.6435722198959075	0.8380190955898078	-79.95687477519355	0	0.9399999999999999	0	-1.050485093936469	-4.380153478165654	1.014463829392134	-2.00593227044339	-0.0350101226912425	0	0	0	-2.586206759578666	-1.264604467496727	1.632260367082214	-4.51053919126096	-0.078723759927746	0	0	0	0	0	0	1.84685654179741	-1.84685654179741	0.3301266315330893	9.002067264462752	89.66987338750781	0	0	1.84685654179741	-1.84685654179741	0.3301266315330893	9.002067264462752	89.66987338663465	0	0
0.08333333333333333	-0.5946722812093901	0.6787834326917578	-79.92966553936651	0	0.9399999999999999	0	-1.33683994772932	-4.369583209397553	0.9661444498336442	-2.145949784355459	-0.03745388931946506	0	0	0	-2.761371572426071	-1.239299540134487	1.656961349359138	-4.411175330208379	-0.07698953339488429	0	0	0	0	0	0	1.888065862694897	-1.888065862694897	0.3378309818610862	9.138666060567548	89.66216903763456	0	0	1.888065862694897	-1.888065862694897	0.3378309818610862	9.138666060567548	89.66216903676283	0	0
0.09999999999999999	-0.5361689018320399	0.5607943246851519	-79.89817829923442	0	0.9399999999999999	0	-1.495148154684088	-4.406630319730643	0.9057705601864011	-2.182577941097684	-0.03809317125355344	0	0	0	-2.885938073570088	-1.218881157178114	1.603442671774812	-4.39151184337589	-0.07664634080723481	0	0	0	0	0	0	1.940793533121975	-1.940793533121975	0.3476890166798673	9.310653852370747	89.65231100339773	0	0	1.940793533121975	-1.940793533121975	0.3476890166798673	9.310653852370747	89.65231100252782	0	0
0.1166666666666667	-0.4424822152511568	0.5413151697974884	-79.87376335868078	0	0.9399999999999999	0	-1.638148623308796	-4.479256177325607	0.8041102327306459	-2.234474748631259	-0.03899894141628813	0	0	0	-2.913330377828383	-1.124876691397381	1.601913864358716	-4.255265475185454	-0.07426839308842724	0	0	0	0	0	0	2.004014081129581	-2.00401408112958	0.3596525237837363	9.601929277985052	89.64034749700262	0	0	2.004014081129581	-2.00401408112958	0.3596525237837363	9.601929277985052	89.64034749613492	0	0
0.1333333333333333	-0.3866316831340486	0.593020608986257	-79.86175814021837	0	0.9399999999999999	0	-1.61687792107192	-4.557884006353141	0.802451603041811	-2.273819365553607	-0.03968563452451897	0	0	0	-2.871299630638408	-1.074083991988861	1.632110684620914	-4.164494158533648	-0.07268413474648286	0	0	0	0	0	0	2.114159437342814	-2.114159437342814	0.3804914792984158	10.07018458797519	89.61950854272229	0	0	2.114159437342814	-2.114159437342814	0.3804914792984158	10.07018458797519	89.61950854185849	0	0
0.15	-0.3660466835508898	0.5439725978072755	-79.87071259966729	0	0.9399999999999999	0	-1.796514946444702	-4.56416910057972	0.7317043374535745	-2.296904146439804	-0.04008853995808457	0	0	0	-2.917521831353376	-1.038244322236892	1.583186915306517	-4.043691047956366	-0.07057572272025851	0	0	0	0	0	0	2.118045626101048	-2.118045626101048	0.3812498344436206	10.10208729805785	89.6187501876224	0	0	2.118045626101048	-2.118045626101048	0.3812498344436206	10.10208729805785	89.61875018675882	0	0
0.1666666666666667	-0.4058716321801836	0.5809672312447374	-79.91243089873403	0	0.9399999999999999	0	-1.753602920884503	-4.532539630210885	0.8076229374450895	-2.237885640946998	-0.03905847271762874	0	0	0	-2.840104912342495	-1.043137965678467	1.598607763512059	-3.923006577060622	-0.0684693813471005	0	0	0	0	0	0	2.177970190181775	-2.177970190181775	0.3924858017012695	10.33536737705388	89.60751422102868	0	0	2.177970190181775	-2.177970190181775	0.3924858017012695	10.33536737705388	89.60751422016719	0	0
0.1833333333333333	-0.4254436219956787	0.5855868949946197	-79.94293801347604	0	0.9399999999999999	0	-1.751110208362996	-4.50248844791339	0.8665397596986739	-2.204328378663345	-0.03847278800282369	0	0	0	-2.830521459728158	-1.039508844470102	1.58328553803653	-3.929591546741051	-0.06858431074916799	0	0	0	0	0	0	2.253959500813671	-2.253959500813671	0.4067005998735066	10.62638763612135	89.59329942369594	0	0	2.253959500813671	-2.253959500813671	0.4067005998735066	10.62638763612135	89.59329942283709	0	0
0.2	-0.4309287710797675	0.5883946308144196	-79.94829495387826	0	0.9399999999999999	0	-1.771473826411795	-4.501421956556606	0.8628005227142264	-2.227723641313077	-0.03888111236543036	0	0	0	-2.839325126263461	-1.020831154688906	1.601275415279809	-3.939582220997713	-0.06875868090944098	0	0	0	0	0	0	2.299401235770568	-2.299401235770568	0.4151515935438823	10.76992638858636	89.58484843052373	0	0	2.299401235770568	-2.299401235770568	0.4151515935438823	10.76992638858636	89.58484842966648	0	0
0.2166666666666666	-0.4201104406140895	0.5682421002268456	-79.95576107823737	0	0.9399999999999999	0	-1.853817689982187	-4.518250762395883	0.8860584506940319	-2.226464499858364	-0.03885913620129727	0	0	0	-2.87605392359078	-1.006487682409699	1.6597640861771	-3.838366203367291	-0.06699212814603349	0	0	0	0	0	0	2.359197662012256	-2.359197662012256	0.4264235500145265	11.04282710536747	89.57357647472024	0	0	2.359197662012256	-2.359197662012256	0.4264235500145265	11.04282710536747	89.57357647386509	0	0
0.2333333333333333	-0.4269987080229222	0.5792974917111803	-79.97856730629726	0	0.9399999999999999	0	-1.906153088228727	-4.497838244645957	0.8769595513557059	-2.284354207698943	-0.03986950220613296	0	0	0	-2.912887100370948	-0.984318792518401	1.647437319507714	-3.878149369616007	-0.06768647538394186	0	0	0	0	0	0	2.400327167981437	-2.400327167981437	0.434057144289025	11.16948670504684	89.56594288089551	0	0	2.400327167981437	-2.400327167981437	0.434057144289025	11.16948670504684	89.56594288004177	0	0
0.25	-0.4411407977431057	0.5920739339961381	-80.02047683898161	0	0.9399999999999999	0	-1.955390553982163	-4.524982686883595	0.8169022391958829	-2.290093772661072	-0.03996967651235421	0	0	0	-2.913048706351022	-1.003870981002974	1.6154755213152	-3.892557462701846	-0.06793794404722359	0	0	0	0	0	0	2.401001199079851	-2.401001199079851	0.4341863031238752	11.17438736251485	89.56581372206836	0	0	2.401001199079851	-2.401001199079851	0.4341863031238752	11.17438736251485	89.56581372121461	0	0
